<?xml version="1.0" standalone="no"?>
<!DOCTYPE svg PUBLIC "-//W3C//DTD SVG 20010904//EN"
 "http://www.w3.org/TR/2001/REC-SVG-20010904/DTD/svg10.dtd">
<svg version="1.0" xmlns="http://www.w3.org/2000/svg"
 width="900.000000pt" height="512.000000pt" viewBox="0 0 900.000000 512.000000"
 preserveAspectRatio="xMidYMid meet">

<g transform="translate(0.000000,512.000000) scale(0.100000,-0.100000)"
fill="#000000" stroke="none">
<path d="M3445 4684 c-351 -32 -614 -143 -828 -352 -191 -188 -309 -429 -352
-719 -14 -94 -15 -247 -12 -1213 4 -1208 0 -1142 63 -1334 62 -192 158 -351
299 -491 178 -178 387 -286 661 -342 83 -17 169 -18 1214 -18 1246 0 1182 -3
1393 66 372 122 647 391 767 753 41 126 58 215 70 369 13 178 13 1956 0 2107
-30 328 -145 589 -352 801 -140 143 -293 238 -491 304 -217 71 -174 69 -1342
71 -577 0 -1068 0 -1090 -2z m2247 -441 c328 -93 515 -282 606 -613 l27 -95 3
-1025 c3 -1065 1 -1136 -38 -1278 -69 -245 -263 -457 -495 -541 -187 -68 -127
-64 -1235 -69 -1074 -4 -1152 -1 -1307 44 -343 99 -542 350 -584 734 -6 61 -9
460 -6 1115 4 1095 2 1065 55 1215 106 301 349 488 697 533 17 3 518 4 1115 3
1084 -1 1085 -1 1162 -23z"/>
<path d="M5597 3885 c-170 -65 -223 -280 -103 -422 89 -105 269 -110 374 -10
128 122 96 338 -62 419 -52 27 -157 33 -209 13z"/>
<path d="M4292 3596 c-245 -47 -451 -155 -622 -326 -452 -451 -452 -1176 0
-1630 449 -451 1179 -451 1630 0 235 235 352 536 337 869 -23 518 -395 961
-904 1077 -96 21 -349 27 -441 10z m390 -427 c125 -35 222 -93 323 -194 103
-103 159 -198 196 -330 28 -100 30 -257 6 -357 -61 -250 -245 -450 -492 -534
-106 -36 -276 -45 -388 -20 -149 33 -314 134 -408 250 -66 81 -133 217 -154
311 -26 114 -17 283 19 390 95 279 329 470 626 508 63 9 197 -4 272 -24z"/>
</g>
</svg>
