<?xml version="1.0" standalone="no"?>
<!DOCTYPE svg PUBLIC "-//W3C//DTD SVG 20010904//EN"
 "http://www.w3.org/TR/2001/REC-SVG-20010904/DTD/svg10.dtd">
<svg version="1.0" xmlns="http://www.w3.org/2000/svg"
 width="850.000000pt" height="669.000000pt" viewBox="0 0 850.000000 669.000000"
 preserveAspectRatio="xMidYMid meet">

<g transform="translate(0.000000,669.000000) scale(0.100000,-0.100000)"
fill="#000000" stroke="none">
<path d="M1557 5674 c-12 -12 -8 -2083 4 -2105 20 -39 1675 -2105 1703 -2127
l29 -22 836 2 c774 3 836 4 836 20 0 14 -986 1254 -2925 3677 -245 306 -452
557 -460 559 -9 1 -19 0 -23 -4z"/>
<path d="M5583 4295 c-708 -885 -1108 -1394 -1108 -1408 l0 -22 825 -3 c771
-2 827 -1 857 15 36 20 559 670 568 705 3 13 4 489 3 1058 -3 971 -4 1035 -20
1038 -13 2 -319 -374 -1125 -1383z"/>
</g>
</svg>
